<?xml version="1.0" encoding="UTF-8" standalone="no"?>
<svg
   xmlns:dc="http://purl.org/dc/elements/1.1/"
   xmlns:cc="http://creativecommons.org/ns#"
   xmlns:rdf="http://www.w3.org/1999/02/22-rdf-syntax-ns#"
   xmlns:svg="http://www.w3.org/2000/svg"
   xmlns="http://www.w3.org/2000/svg"
   xmlns:sodipodi="http://sodipodi.sourceforge.net/DTD/sodipodi-0.dtd"
   xmlns:inkscape="http://www.inkscape.org/namespaces/inkscape"
   id="ad312db5-6fab-4bde-98aa-7530aba76f1b"
   data-name="Ebene 7"
   viewBox="0 0 2000 2000"
   version="1.1"
   sodipodi:docname="Logo-NetworkUnit-2021_simplified.svg"
   inkscape:version="0.92.3 (2405546, 2018-03-11)">
  <metadata
     id="metadata89">
    <rdf:RDF>
      <cc:Work
         rdf:about="">
        <dc:format>image/svg+xml</dc:format>
        <dc:type
           rdf:resource="http://purl.org/dc/dcmitype/StillImage" />
        <dc:title></dc:title>
      </cc:Work>
    </rdf:RDF>
  </metadata>
  <sodipodi:namedview
     pagecolor="#ffffff"
     bordercolor="#666666"
     borderopacity="1"
     objecttolerance="10"
     gridtolerance="10"
     guidetolerance="10"
     inkscape:pageopacity="0"
     inkscape:pageshadow="2"
     inkscape:window-width="1920"
     inkscape:window-height="1055"
     id="namedview87"
     showgrid="false"
     inkscape:zoom="0.35355339"
     inkscape:cx="783.6021"
     inkscape:cy="1224.248"
     inkscape:window-x="0"
     inkscape:window-y="0"
     inkscape:window-maximized="0"
     inkscape:current-layer="ad312db5-6fab-4bde-98aa-7530aba76f1b" />
  <defs
     id="defs13">
    <style
       id="style2">.b9c543ae-8322-4636-b33b-65362c2ba457,.fe44ed90-dc5f-49c5-9520-941acf6c584f{fill:#fff;}.ec2a47b8-00bb-4ef3-892e-5a4948fac0a1{fill:#d9d9d9;}.a58d1038-a656-46eb-98ad-a7256f8083fe{fill:#4d4d4d;}.b6eac33f-f426-4820-a281-5884b89eb62a{fill:#fefefe;}.b940d592-4845-48f9-b2e1-dd2bd0d27d65{fill:#66d33c;}.b168b033-46f0-4f03-bfab-48b5520df866{fill:#f2d510;}.a3ef02bf-73ff-49ff-a31f-149e39461fbe,.f0a242de-50f9-4656-a3fc-779a914746b3{stroke:#fff;}.a3ef02bf-73ff-49ff-a31f-149e39461fbe,.b9c543ae-8322-4636-b33b-65362c2ba457,.f0a242de-50f9-4656-a3fc-779a914746b3{stroke-miterlimit:10;}.f0a242de-50f9-4656-a3fc-779a914746b3{stroke-width:3px;}.bbb93706-eb35-40f3-83d5-18c3858e7a93{fill:#f28b10;}.a3ef02bf-73ff-49ff-a31f-149e39461fbe{stroke-width:2px;}.bbb23b2e-2384-4d45-b481-c9900fd9a022{fill:#f23610;}.b9c543ae-8322-4636-b33b-65362c2ba457{stroke:#000;stroke-width:6px;}.f4022cbd-1897-44a4-9269-5247219d1136{fill:gray;}.b84f5881-426c-4196-beb9-a82a2f7ba3df{fill:url(#a6961f11-6ed5-4a1f-8702-b70604beaf98);}</style>
    <linearGradient
       id="a6961f11-6ed5-4a1f-8702-b70604beaf98"
       x1="550.97956"
       y1="863.92989"
       x2="1656.9652"
       y2="1814.1123"
       gradientUnits="userSpaceOnUse">
      <stop
         offset="0"
         stop-color="#55a53f"
         id="stop4" />
      <stop
         offset="0.43634856"
         stop-color="#f6e733"
         id="stop6" />
      <stop
         offset="0.97956"
         stop-color="#eb1e24"
         id="stop10" />
    </linearGradient>
  </defs>
  <g
     id="a31e3777-c543-4b6d-a8bc-25955e659f02"
     data-name="Full Newt">
    <path
       class="a58d1038-a656-46eb-98ad-a7256f8083fe"
       d="M268.43362,665.49956c.3036-4.7211,2.70885-10.84129-.77443-13.32291-4.12088-3.41394-26.18713-16.35455-24.35428-3.47408,4.03669,18.84214-.2596,37.03689-4.18894,55.25221-.41862,1.94061-2.65242,4.02518-.19977,5.6041C259.79745,709.00025,261.2476,679.33371,268.43362,665.49956Z"
       id="path23" />
    <path
       class="a58d1038-a656-46eb-98ad-a7256f8083fe"
       d="M365.93533,772.60358c-2.027,5.79074,2.46671,9.3293,6.69157,3.87355,12.77842-12.99036,29.32193-17.87038,46.4637-21.38555,4.69869-.96355,9.994-1.13463,4.04842-7.76172C414.18443,712.42752,370.27562,752.48423,365.93533,772.60358Z"
       id="path25" />
    <path
       class="b6eac33f-f426-4820-a281-5884b89eb62a"
       d="M394.36757,795.84483c-3.59147,12.04636,29.2722-11.78479,25.54395-16.30153C410.35709,783.35065,399.69307,785.42242,394.36757,795.84483Z"
       id="path29" />
    <path
       class="a58d1038-a656-46eb-98ad-a7256f8083fe"
       d="M239.019,820.5513c.78724-5.72183-3.58743-8.84913-6.90269-11.74884-2.30861-2.01928-3.76309,1.23072-3.74615,3.69319.0306,4.45024,3.58281,7.42613,5.1189,11.27273C235.563,826.00665,239.21942,823.40236,239.019,820.5513Z"
       id="path31" />
    <path
       class="a58d1038-a656-46eb-98ad-a7256f8083fe"
       d="M277.167,830.30225c-5.81529-1.41573-8.21451.0962-8.76892,4.38454-.28925,2.23736-1.27976,5.44329,2.35871,4.94993,3.69642-.50123,9.13477,1.22008,10.60876-3.63514C282.41392,832.54816,278.64564,830.83909,277.167,830.30225Z"
       id="path33" />
  </g>
  <path
     class="b940d592-4845-48f9-b2e1-dd2bd0d27d65"
     d="M229.72754,910.09375h37.99512v174.24316H229.002L130.98926,967.69043v116.64648H93.47852V910.09375h38.7207l97.52832,116.16211Z"
     id="path36" />
  <path
     class="b168b033-46f0-4f03-bfab-48b5520df866"
     d="M433.48926,979.06543V1032.79H328.21777v14.52051H433.48926v37.02636h-107.208a35.43176,35.43176,0,0,1-35.09082-35.09082V979.06543a35.43112,35.43112,0,0,1,35.09082-35.09082h72.11719A35.272,35.272,0,0,1,433.48926,979.06543Zm-37.02637,21.2959V981.001H328.21777v19.36035Z"
     id="path38" />
  <path
     class="f0a242de-50f9-4656-a3fc-779a914746b3"
     d="M596.83594,943.97461v26.13672H537.30273v114.22558H511.167V970.11133h-59.5332V943.97461Z"
     id="path40" />
  <path
     class="bbb93706-eb35-40f3-83d5-18c3858e7a93"
     d="M614.9834,1049.24609V943.97461h36.78515v103.33594H698.2334V943.97461H735.502v103.33594H781.9668V943.97461h37.02636v140.3623H650.31641C630.95605,1084.33691,614.9834,1068.36426,614.9834,1049.24609Z"
     id="path42" />
  <path
     class="a3ef02bf-73ff-49ff-a31f-149e39461fbe"
     d="M962.49609,943.97461a31.39768,31.39768,0,0,1,31.46094,31.46V1052.876a31.39789,31.39789,0,0,1-31.46094,31.46093H882.63477a31.39851,31.39851,0,0,1-31.46094-31.46093V975.43457a31.3983,31.3983,0,0,1,31.46094-31.46Zm0,114.22559a5.37125,5.37125,0,0,0,5.32422-5.32422V975.43457a5.371,5.371,0,0,0-5.32422-5.32324H882.63477a5.371,5.371,0,0,0-5.32422,5.32324V1052.876a5.37125,5.37125,0,0,0,5.32422,5.32422Z"
     id="path44" />
  <path
     class="a3ef02bf-73ff-49ff-a31f-149e39461fbe"
     d="M1162.14355,1005.20117a31.55281,31.55281,0,0,1-31.46,31.46094h-15.24707l49.127,44.04492v3.62988h-30.97657l-52.27246-47.6748h-35.8164v47.6748h-26.13672V943.97461h111.32226a31.5526,31.5526,0,0,1,31.46,31.46Zm-31.46,5.32422a5.37189,5.37189,0,0,0,5.32422-5.32422v-29.7666a5.37169,5.37169,0,0,0-5.32422-5.32324h-79.86132a5.371,5.371,0,0,0-5.32422,5.32324v29.7666a5.37125,5.37125,0,0,0,5.32422,5.32422Z"
     id="path46" />
  <path
     class="a3ef02bf-73ff-49ff-a31f-149e39461fbe"
     d="M1329.84961,943.97461v3.62988l-60.25977,66.55078,60.25977,66.55176v3.62988h-30.97656l-52.51563-57.11328h-31.46v57.11328h-26.13672V943.97461h26.13672v57.11328h31.46l52.51563-57.11328Z"
     id="path48" />
  <path
     class="a3ef02bf-73ff-49ff-a31f-149e39461fbe"
     d="M1501.90918,910.09375h26.13672V1052.876a31.39789,31.39789,0,0,1-31.46094,31.46093H1385.26367a31.3979,31.3979,0,0,1-31.46094-31.46093V910.09375h26.13672V1052.876a5.37126,5.37126,0,0,0,5.32422,5.32422H1496.585a5.37125,5.37125,0,0,0,5.32422-5.32422Z"
     id="path50" />
  <path
     class="a3ef02bf-73ff-49ff-a31f-149e39461fbe"
     d="M1673.24219,943.97461h26.13574v140.3623h-30.97656L1580.3125,978.58105v105.75586h-26.13672V943.97461h30.97656l88.08985,105.51367Z"
     id="path52" />
  <path
     class="a3ef02bf-73ff-49ff-a31f-149e39461fbe"
     d="M1725.50977,943.97461h26.13671v140.3623h-26.13671Z"
     id="path54" />
  <path
     class="bbb23b2e-2384-4d45-b481-c9900fd9a022"
     d="M1914.26953,943.97461V981.001h-53.9668v103.33593H1823.0332V981.001h-53.48242V943.97461Z"
     id="path56" />
  <path
     d="M596.83594,943.97461v26.13672H537.30273v114.22558H511.167V970.11133h-59.5332V943.97461Z"
     id="path58" />
  <path
     d="M962.49609,943.97461a31.39768,31.39768,0,0,1,31.46094,31.46V1052.876a31.39789,31.39789,0,0,1-31.46094,31.46093H882.63477a31.39851,31.39851,0,0,1-31.46094-31.46093V975.43457a31.3983,31.3983,0,0,1,31.46094-31.46Zm0,114.22559a5.37125,5.37125,0,0,0,5.32422-5.32422V975.43457a5.371,5.371,0,0,0-5.32422-5.32324H882.63477a5.371,5.371,0,0,0-5.32422,5.32324V1052.876a5.37125,5.37125,0,0,0,5.32422,5.32422Z"
     id="path60" />
  <path
     d="M1162.14355,1005.20117a31.55281,31.55281,0,0,1-31.46,31.46094h-15.24707l49.127,44.04492v3.62988h-30.97657l-52.27246-47.6748h-35.8164v47.6748h-26.13672V943.97461h111.32226a31.5526,31.5526,0,0,1,31.46,31.46Zm-31.46,5.32422a5.37189,5.37189,0,0,0,5.32422-5.32422v-29.7666a5.37169,5.37169,0,0,0-5.32422-5.32324h-79.86132a5.371,5.371,0,0,0-5.32422,5.32324v29.7666a5.37125,5.37125,0,0,0,5.32422,5.32422Z"
     id="path62" />
  <path
     d="M1329.84961,943.97461v3.62988l-60.25977,66.55078,60.25977,66.55176v3.62988h-30.97656l-52.51563-57.11328h-31.46v57.11328h-26.13672V943.97461h26.13672v57.11328h31.46l52.51563-57.11328Z"
     id="path64" />
  <path
     d="M1501.90918,910.09375h26.13672V1052.876a31.39789,31.39789,0,0,1-31.46094,31.46093H1385.26367a31.3979,31.3979,0,0,1-31.46094-31.46093V910.09375h26.13672V1052.876a5.37126,5.37126,0,0,0,5.32422,5.32422H1496.585a5.37125,5.37125,0,0,0,5.32422-5.32422Z"
     id="path66" />
  <path
     d="M1673.24219,943.97461h26.13574v140.3623h-30.97656L1580.3125,978.58105v105.75586h-26.13672V943.97461h30.97656l88.08985,105.51367Z"
     id="path68" />
  <path
     d="M1725.50977,943.97461h26.13671v140.3623h-26.13671Z"
     id="path70" />
  <polygon
     class="fe44ed90-dc5f-49c5-9520-941acf6c584f"
     points="1820.033 1087.337 1820.033 984.001 1766.551 984.001 1766.551 940.975 1917.27 940.975 1917.27 984.001 1863.303 984.001 1863.303 1087.337 1820.033 1087.337"
     id="polygon72" />
  <path
     style="color:#000000;font-style:normal;font-variant:normal;font-weight:normal;font-stretch:normal;font-size:medium;line-height:normal;font-family:sans-serif;font-variant-ligatures:normal;font-variant-position:normal;font-variant-caps:normal;font-variant-numeric:normal;font-variant-alternates:normal;font-feature-settings:normal;text-indent:0;text-align:start;text-decoration:none;text-decoration-line:none;text-decoration-style:solid;text-decoration-color:#000000;letter-spacing:normal;word-spacing:normal;text-transform:none;writing-mode:lr-tb;direction:ltr;text-orientation:mixed;dominant-baseline:auto;baseline-shift:baseline;text-anchor:start;white-space:normal;shape-padding:0;clip-rule:nonzero;display:inline;overflow:visible;visibility:visible;opacity:1;isolation:auto;mix-blend-mode:normal;color-interpolation:sRGB;color-interpolation-filters:linearRGB;solid-color:#000000;solid-opacity:1;vector-effect:none;fill:#55a53f;fill-opacity:1;fill-rule:nonzero;stroke:none;stroke-width:1;stroke-linecap:butt;stroke-linejoin:miter;stroke-miterlimit:4;stroke-dasharray:none;stroke-dashoffset:0;stroke-opacity:1;color-rendering:auto;image-rendering:auto;shape-rendering:auto;text-rendering:auto;enable-background:accumulate"
     d="m 1763.0508,937.47461 v 50.02734 h 53.4824 v 103.33595 h 50.2695 V 987.50195 h 53.9668 v -50.02734 h -0.5 z m 7,7 h 143.7187 v 36.02734 h -53.9668 v 103.33595 h -36.2695 V 980.50195 h -53.4824 z"
     id="path74"
     inkscape:connector-curvature="0"
     sodipodi:nodetypes="ccccccccccccccccccc" />
  <path
     class="b9c543ae-8322-4636-b33b-65362c2ba457"
     d="M614.9834,1049.24609V943.97461h36.78515v103.33594H698.2334V943.97461H735.502v103.33594H781.9668V943.97461h37.02636v140.3623H650.31641C630.95605,1084.33691,614.9834,1068.36426,614.9834,1049.24609Z"
     id="path76"
     style="stroke:#55a53f;stroke-opacity:1" />
  <path
     class="b9c543ae-8322-4636-b33b-65362c2ba457"
     d="M433.48926,979.06543V1032.79H328.21777v14.52051H433.48926v37.02636h-107.208a35.43176,35.43176,0,0,1-35.09082-35.09082V979.06543a35.43112,35.43112,0,0,1,35.09082-35.09082h72.11719A35.272,35.272,0,0,1,433.48926,979.06543Zm-37.02637,21.2959V981.001H328.21777v19.36035Z"
     id="path78"
     style="stroke:#55a53f;stroke-opacity:1" />
  <path
     class="b9c543ae-8322-4636-b33b-65362c2ba457"
     d="M229.72754,910.09375h37.99512v174.24316H229.002L130.98926,967.69043v116.64648H93.47852V910.09375h38.7207l97.52832,116.16211Z"
     id="path80"
     style="stroke:#55a53f;stroke-opacity:1" />
  <path
     class="f4022cbd-1897-44a4-9269-5247219d1136"
     d="m 1814.5851,745.08179 c 9.8888,42.38037 -5.0849,84.81445 -4.0535,127.12927 0.034,19.04907 1.8502,38.05318 5.4265,56.76355 h 30.337 c 0.9806,-8.40549 2.516,-16.73693 4.596,-24.93982 8.7345,-33.23621 7.5112,-68.48877 17.9946,-101.42737 4.3477,-21.26636 7.5151,-42.733 9.8162,-64.39673 5.957,-59.97094 -55.6448,-97.36767 -106.5293,-109.38745 -66.2605,-15.3667 -136.668,8.40064 -200.9807,-18.05432 -32.6673,-11.17175 -50.2696,-39.1969 -46.9979,-73.34631 1.7061,-29.47473 1.4312,-58.939 0.3968,-88.44092 -2.7892,-114.25049 -163.7923,-132.38391 -251.79,-133.82153 -31.4937,-1.22 -62.9317,3.36084 -94.4965,3.30236 -13.3392,-0.0247 -23.1267,-4.96106 -28.3118,-17.61608 -4.2481,-10.368 -7.5062,-21.13624 -11.4884,-31.61915 -2.8846,-7.59387 -10.0788,-13.62768 -11.7033,-20.92675 -2.5101,-11.27857 -5.3039,-20.61 -15.3664,-27.94214 -32.6878,-29.61853 -73.8822,-13.8147 -82.0819,-31.667 -4.7524,-8.66431 -7.3655,-18.43653 -13.6839,-26.27222 l -3.1485,-0.55518 c -6.0404,7.12207 1.8636,18.15967 2.7607,26.10889 5.2103,24.90869 -29.95231,12.34033 -43.17094,9.22095 -3.5567,-1.19116 -7.91333,-0.14356 -11.88763,0.1355 -1.71088,0.12011 -1.75537,1.88317 -2.22949,3.22827 -0.75775,2.14966 0.8302,2.82544 2.0412,3.70044 8.50891,6.68921 42.08266,11.70068 43.25406,21.9248 -1.0762,12.51026 -20.90915,14.63843 -30.71348,17.38049 -4.97442,1.37061 -14.6914,2.82447 -12.69506,10.0221 0.53668,2.946 3.83435,2.90478 5.7456,2.52441 15.46228,-2.39941 30.41052,-7.40747 46.31404,-7.71093 12.6368,3.13134 -5.4566,17.2268 -8.0506,22.86779 -2.5289,11.0199 -9.81431,7.16382 -16.30253,5.06592 -36.00659,-11.234 -69.16157,-21.77456 -110.32654,-24.86462 -41.16497,-3.09006 -69.97461,3.99157 -104.22827,9.89648 -55.81629,11.39795 -107.103,37.30005 -159.29486,59.382 -32.92853,14.79333 -63.18952,34.69763 -93.76251,53.71558 -8.722,7.33264 -17.77063,14.27587 -26.63367,21.44177 -3.48187,2.81506 -6.22809,2.65173 -10.22138,-0.0316 -12.53479,-8.8977 -23.39874,-20.13586 -30.04724,-33.97741 -14.28186,-22.49683 -39.43329,-80.76636 -73.111,-57.4657 -19.8139,16.26526 -32.57379,37.93921 -44.80188,59.97033 -8.53119,15.96289 -15.43225,27.61451 -34.14844,32.20667 -18.24817,6.86389 -37.662,8.24963 -56.33667,12.97717 -7.10485,1.5459 -9.68035,13.407 0.36615,12.57129 5.03254,-0.16968 10.01612,1.32227 15.09845,0.0908 5.91932,-1.8905 8.3985,3.41577 3.293,6.79761 -6.38171,8.49658 -35.23639,23.70581 -27.59814,34.66406 8.22314,7.21814 32.89764,-13.96777 41.42962,-17.80371 16.65351,-8.75342 -3.00085,23.26074 -5.64355,27.36023 -2.17487,6.23523 -12.87384,19.57605 -7.59753,24.50049 2.21722,1.42248 4.90728,1.29626 7.33978,-0.743 10.88232,-9.12281 21.421,-18.54529 29.19079,-30.62256 13.73407,-18.249 11.66632,4.22314 11.87091,14.01111 -0.75866,9.50012 10.67212,10.3778 12.65925,1.55847 2.35864,-7.33032 4.20782,-14.82837 6.148,-22.28858 1.70147,-11.50757 6.55395,-4.22705 8.96356,2.02637 1.1709,2.06494 3.36194,1.78564 5.21386,1.84473 3.87781,-0.42237 3.50641,-24.45386 3.17322,-28.80347 -1.30811,-12.23447 3.63303,-24.3051 13.14452,-32.11054 14.58521,-11.59937 23.905,-26.95911 33.48334,-42.46082 13.85119,19.55155 28.67692,38.39412 44.421,56.4563 11.0824,11.39551 9.55365,20.32642 -1.61584,29.49255 -20.879,18.88233 -30.60431,46.37708 -50.61817,65.34082 -11.76294,8.4867 -24.01459,16.26453 -35.32281,25.42347 -23.04071,15.59619 -48.37567,28.18676 -68.88709,47.45337 -11.94427,10.20336 -23.81671,20.49365 -35.88977,30.54321 -20.38165,17.8728 -35.019,43.35791 -39.80517,70.06079 -1.5278,17.82078 -2.07013,25.65218 -1.62079,31.08935 2.30877,61.42872 -17.84192,115.50611 57.21045,139.69336 75.27792,-9.7638 163.08996,-55.92235 195.58879,-118.14868 11.60071,-22.66357 19.39154,-46.97021 30.4469,-69.86816 4.58747,-14.1189 3.83692,-24.79944 15.38349,-35.90442 13.77844,-18.50781 29.76318,-35.94458 50.67083,-46.53577 5.24665,-2.56665 8.79248,1.51685 11.63166,4.54615 18.24011,20.01879 35.81359,40.65258 55.17236,59.64 2.16125,2.203 1.51007,3.00171 -1.0448,3.84143 -17.33411,5.69775 -32.18329,15.948 -47.39087,25.62415 -17.71466,13.23352 -35.142,2.94763 -54.34106,-0.78626 -1.89875,-0.47192 -3.29444,-0.2644 -4.43366,1.58667 -3.254,5.8042 7.9635,9.48291 5.069,15.07141 -1.33649,3.27893 -6.30218,1.58631 -9.6109,1.78528 -8.779,0.52771 -17.76123,-0.61816 -25.99341,3.603 -8.50354,2.98889 -7.92822,12.25952 3.0401,11.05713 6.57764,0.14087 12.93665,0.77124 18.99268,3.54028 1.79547,0.82092 4.51361,0.25928 4.51562,3.40381 0.002,2.87671 -2.32483,3.95959 -4.30353,4.86438 -9.87823,4.45811 -19.41572,9.63565 -28.53552,15.49084 -6.19049,4.99488 -18.14886,12.22095 -15.52826,19.15723 1.53772,2.40564 4.2118,1.77734 6.656,0.8855 4.17871,-0.95288 60.76623,-25.583 47.78662,-6.53906 -8.20355,9.81225 -17.23975,19.00048 -24.77252,29.32373 -4.41132,5.93237 1.1156,12.65991 7.83661,8.27465 4.90332,-0.37011 38.94134,-35.87756 37.29132,-18.43676 -0.52,5.89575 -3.11841,14.542 4.30316,16.9685 3.32965,1.20679 4.51495,-1.26477 5.52484,-3.30359 9.72363,-16.58557 23.07635,-58.13562 39.16736,-65.78674 28.49335,-10.97522 57.85449,-19.18091 83.59527,-36.27026 22.75727,-10.5409 16.92292,-36.9773 4.76929,-53.75269 -18.02917,-25.67224 -44.38641,-43.33288 -64.00763,-67.43384 -4.53656,-5.57226 -1.89581,-6.46643 3.37494,-8.36889 20.1488,-7.2732 40.30139,-14.69263 61.64465,-17.28077 29.37616,-3.65332 59.46369,-7.26928 88.9372,-2.07006 55.47638,10.53393 112.80194,15.188 169.08179,9.64257 27.67559,-3.251 52.96429,-13.573 76.20093,-29.02026 34.8307,-21.12427 67.8877,-40.13135 102.4203,-62.48035 10.2887,-6.92932 24.4255,36.21827 17.2372,40.974 -6.6855,8.98267 -13.0497,18.21338 -19.9861,26.99439 -8.7293,13.48108 -17.2541,-1.29981 -25.8825,-7.76563 -2.8264,-2.89087 -6.0406,3.92456 -4.4407,6.46411 10.8719,21.72217 -20.9039,10.7229 -32.1526,11.32251 -3.1076,-0.36 -4.46,1.19422 -4.5435,3.55884 -1.3442,9.167 24.6841,6.01111 25.4874,15.48877 2.2058,12.44531 -40.0783,25.06152 -36.2,34.9939 7.7915,8.17248 38.2361,-22.70618 46.4273,-13.04456 4.333,5.56653 -20.7671,23.33582 -23.3969,31.36536 -1.1603,1.89917 -2.6093,4.25952 -0.7826,5.43738 1.9297,1.24426 4.9924,2.36694 7.406,0.0865 8.3827,-7.92028 16.7084,-15.90063 25.0837,-23.82861 3.2342,-3.80688 8.8516,-1.77551 6.7803,3.67737 -1.4853,10.923 -10.6175,18.74316 -11.7213,29.81091 -0.3578,1.30127 -0.9034,3.10132 1.3092,3.223 1.6036,0.0883 3.2649,1.85572 4.9121,-0.96716 48.4055,-77.87964 44.4927,6.979 84.584,-109.99145 3.6175,-10.03846 0.9669,-19.287 0.6873,-28.812 -0.5055,-17.22071 -1.3826,-34.3711 1.0552,-51.548 1.3121,-9.24524 6.6767,-14.11194 14.8347,-17.46594 66.2541,-22.37732 140.321,-16.38159 206.2542,3.66382 38.1525,14.51074 57.8344,55.905 57.9672,94.89306 0.9102,16.21289 4.717,32.23023 3.7835,48.5481 -1.1205,19.58423 3.9377,38.51416 6.8911,57.4967 8.3679,45.94263 61.9651,68.82166 102.9975,80.01087 56.1153,14.25244 112.6466,-6.83814 168.8052,1.95288 27.5124,5.52595 71.0383,16.48542 78.9681,46.49348 z M 1098.8435,291.33643 c 0.4134,23.82885 -39.2514,2.1477 -51.7385,0.84545 -12.4991,-2.73266 -24.7685,-6.49926 -37.2056,-9.53906 -3.7035,-0.905 -2.9263,-2.34472 -0.859,-3.77954 7.6612,-5.31714 13.5033,-12.54687 20.2787,-18.78784 4.8484,-5.02734 10.7195,-1.426 6.9306,4.77039 -4.0731,5.57775 1.1046,8.84069 5.4649,3.98254 11.514,-12.754 25.7461,-17.65381 42.7028,-14.24219 1.3986,0.24658 3.3232,10e-4 4.0995,0.83 2.5757,2.74939 9.4432,0.007 8.9348,5.35241 -0.9844,10.34664 1.7016,20.37203 1.3918,30.56784 z"
     id="path82"
     inkscape:connector-curvature="0"
     style="fill:#808080"
     sodipodi:nodetypes="ccccccccccccccccccccccccccccccccscccccccccccccccccccccccccccccccccccccccccccccccccccccccccccccccccccccccccccccccccccccccccccccccccccccccccccccccc" />
  <path
     class="b84f5881-426c-4196-beb9-a82a2f7ba3df"
     d="m 1879.457,1281.473 c 0,-0.025 -8e-4,-0.051 0,-0.076 v 0 h -5e-4 -7e-4 l -22.2585,-135.0295 -3.4402,-47.0205 h -7.019 l 3.4895,47.6904 0.037,0.3135 15.124,91.7451 -30.9386,-92.742 4.5771,-47.007 h -7.0328 l -4.3762,44.9445 -13.9085,5.5278 12.4704,-50.4723 h -7.2104 l -13.6875,55.3984 v 0.036 c -0.062,0.2618 -0.093,0.5298 -0.093,0.7988 l -0.01,0.043 1.4453,131.792 -81.1152,39.2637 -105.3235,-3.933 -0.011,-5e-4 -0.01,-10e-5 -0.01,9e-4 c -0.063,0 -0.1263,0.01 -0.1897,0.01 -0.1052,0 -0.2092,0.01 -0.3143,0.018 -0.1167,0.014 -0.2326,0.033 -0.3473,0.059 -0.071,0.015 -0.1418,0.021 -0.2118,0.041 h -0.012 l -123.0058,34.7549 -0.043,0.034 c -0.8551,0.2566 -1.5801,0.8296 -2.0274,1.6021 l -0.035,0.028 -38.3496,68.7998 -0.4043,1.1806 -21.4697,141.8575 -53.8653,41.0986 -118.1435,13.8437 -84.5176,-23.6748 -1.7471,-78.5537 -0.3486,-1.4453 -52.1927,-69.4599 c -10.6155,-15.8509 -22.8507,-35.3034 -33.4561,-51.1628 v 0 l -3.9194,-0.7276 v -6e-4 l -34.8574,15.7188 -0.056,0.04 c -0.3674,0.1687 -0.7026,0.4003 -0.9905,0.6844 -0.017,0.017 -0.028,0.037 -0.044,0.055 l -0.029,0.021 -22.248,23.7587 -0.01,0.032 c -0.7803,0.8144 -1.1009,1.9653 -0.8543,3.0658 l -0.01,0.022 10.7129,50.4824 0.02,0.026 c 0.2191,1.0019 0.8692,1.8561 1.7766,2.3342 l 0.015,0.02 41.1368,21.3447 h 0.031 c 1.1188,0.5901 2.4718,0.5151 3.5185,-0.1951 l 0.01,-4e-4 16.9082,-11.3057 24.5224,30.8984 -16.1689,32.6856 -37.708,-23.543 -47.5166,-28.5 -55.36819,-29.376 -0.0866,-0.028 c -0.32296,-0.1644 -0.66964,-0.2772 -1.02747,-0.3345 l -0.0319,-0.01 -72.92236,-10.3945 -0.0248,-10e-4 c -0.0175,0 -0.0345,-0.01 -0.052,-0.01 -0.0181,0 -0.0359,4e-4 -0.054,0 -0.16491,-0.016 -0.33077,-0.021 -0.49633,-0.014 h -0.0848 l -0.0115,7e-4 h -0.0272 l -152.60193,14.2114 -63.956,-4.0537 -64.31348,-19.1689 70.41992,-82.8203 0.832,-2.1631 0.79151,-26.585 -0.006,-0.01 c 0.0457,-1.3445 -0.69527,-2.5927 -1.89758,-3.1963 l -0.0118,-0.02 -96.437,-48.9101 -9.187,-8.3086 -34.47608,-59.623 -0.0247,-0.016 c -0.5644,-0.9632 -1.55615,-1.5978 -2.66729,-1.7066 l -0.017,-0.011 -47.74317,-4.3926 h -0.0109 c -1.08924,-0.1247 -2.16955,0.2982 -2.88452,1.1294 l -0.028,0.011 -31.35734,34.8692 -0.005,0.024 c -0.82753,0.8994 -1.10809,2.174 -0.73468,3.3378 l -0.002,0.01 0.0156,0.051 h 4.9e-4 l 11.35693,36.8229 -5.60986,-13.2119 -0.0372,-0.07 c -0.0353,-0.078 -0.0795,-0.1516 -0.12061,-0.2273 l -25.01745,-47.1615 -0.0814,-0.1164 c -0.0943,-0.1611 -0.20145,-0.3143 -0.32032,-0.4583 l -0.0871,-0.1245 -46.66255,-38.4512 c -22.41453,-9.2546 -44.91587,-18.3364 -67.38233,-27.4766 h -0.009 -0.009 l -0.002,-6e-4 c -0.21496,-0.086 -0.43784,-0.1499 -0.66541,-0.1918 -0.0777,-0.014 -0.1549,-0.013 -0.23266,-0.022 l -0.10169,-0.024 -74.99951,-6.4258 -0.0391,0.013 c -0.91844,-0.091 -1.83288,0.2079 -2.5202,0.8239 l -0.0398,0.013 -35.97217,31.3643 -0.0128,0.026 c -0.69867,0.5875 -1.12291,1.4381 -1.17194,2.3497 l -0.006,0.012 -6.77735,94.8145 -6.1e-4,0.099 c -0.001,0.025 -0.005,0.049 -0.006,0.073 -7.9e-4,0.036 0.005,0.072 0.005,0.108 l -10e-4,0.1768 c 0.75685,20.2598 4.45333,40.2559 7.28125,60.3008 l 0.026,0.07 c 0.0717,0.4475 0.2306,0.8766 0.46772,1.2628 l 0.0239,0.064 27.63477,43.164 h 0.003 l 0.0131,0.021 0.0219,0.025 c 0.17237,0.2569 0.37797,0.4898 0.61145,0.6926 l 0.0761,0.086 68.19629,56.7305 0.28321,0.2129 77.77783,52.376 50.17871,64.7734 9.63818,15.0029 -49.69336,63.3926 -42.5625,-50.0137 -3.63623,-48.0927 -0.0193,-0.039 c -0.0755,-0.8726 -0.47637,-1.6849 -1.12305,-2.2756 l -0.0154,-0.031 -27.43213,-24.5214 -0.023,-0.011 c -0.46545,-0.4063 -1.03036,-0.6818 -1.63709,-0.7984 l -0.0538,-0.026 -53.95459,-9.6914 h -0.004 c -1.23351,-0.2354 -2.4965,0.227 -3.28626,1.2034 l -0.0244,0.01 -28.18848,34.0566 -0.007,0.027 c -0.64665,0.7522 -0.91879,1.7562 -0.74048,2.732 l -0.01,0.037 8.84082,54.123 0.0185,0.021 c 0.22319,1.3181 1.18144,2.3919 2.4657,2.7631 l 0.0178,0.02 71.26709,20.1475 44.4834,65.8525 1.04346,1.0079 36.57422,22.8935 h 0.002 c 0.55468,0.3483 1.19635,0.5331 1.85132,0.5332 0.10839,0 0.2176,0 0.32763,-0.015 0.54592,-0.054 1.07108,-0.2379 1.53229,-0.535 l 0.0268,-2e-4 23.14844,-14.7734 1.05469,-1.0469 63.3882,-81.4443 73.12012,49.001 0.21375,0.123 c 0.0382,0.022 0.0747,0.045 0.11364,0.065 l 0.0901,0.052 0.0463,0.023 h 0.009 l 195.06671,82.8814 0.16821,0.04 c 0.12958,0.039 0.26132,0.07 0.39454,0.093 l 0.24194,0.057 116.66113,13.3125 0.0621,-0.01 0.0678,0.01 c 0.0878,0.01 0.17371,0.023 0.26276,0.023 0.22387,-3e-4 0.44721,-0.022 0.667,-0.064 0.0156,0 0.029,-0.01 0.0446,-0.013 0.0682,-0.014 0.133,-0.039 0.2005,-0.057 l 0.0748,-0.01 121.08349,-35.4052 96.39024,-16.9971 0.5117,36.8437 -27.4131,5.582 -28.4112,-16.0391 -0.099,-0.036 c -0.2952,-0.1583 -0.6116,-0.2734 -0.9395,-0.3416 l -0.042,-0.015 -36.07233,-6.7187 h -0.0273 c -0.81345,-0.1432 -1.6513,0.01 -2.36444,0.4236 l -0.0448,0.01 -40.41406,24.1621 -0.004,0.01 c -1.06436,0.6227 -1.71082,1.7704 -1.69171,3.0034 l -0.009,0.015 0.34277,56.2559 0.0127,0.024 c -10e-4,1.1452 0.57048,2.2151 1.52288,2.851 l 7e-5,2e-4 52.29732,35.4658 h 0.025 c 0.075,0.05 0.1406,0.1102 0.2207,0.1554 1.4248,0.8068 3.2192,0.5122 4.3112,-0.7079 h 0.01 l 29.4336,-32.7314 68.0772,-24.8145 0.022,-0.019 c 0.7785,-0.2927 1.4269,-0.8537 1.8283,-1.5821 l 0.034,-0.03 44.6494,-93.3135 193.546,-5.6191 c 0.3358,-0.01 0.6687,-0.064 0.9883,-0.168 l 0.041,-0.01 121.9482,-40.585 0.039,-0.028 c 0.6399,-0.2214 1.2012,-0.6247 1.6152,-1.1606 l 0.035,-0.025 46.3632,-61.4892 0.016,-0.045 c 0.4097,-0.5571 0.6433,-1.2241 0.6707,-1.915 l 0.018,-0.05 3.6758,-132.6602 30.0841,-46.4807 131.5672,-20.3278 108.7382,-10.866 1.627,-0.6377 66.0957,-47.7295 0.015,-0.024 c 0.6783,-0.4964 1.1553,-1.2204 1.3438,-2.0395 l 0.01,-0.012 0.011,-0.047 h 10e-4 l 13.6526,-61.1204 v -0.053 c 0.01,-0.044 0.011,-0.088 0.018,-0.1324 0.025,-0.128 0.042,-0.2574 0.052,-0.3875 0,-0.1144 9e-4,-0.229 -0.01,-0.3432 0,-0.1125 -0.01,-0.2239 -0.023,-0.337 z m -1553.0871,333.2156 14.795,-35.5958 2.61928,34.6367 h 0.001 c 0.0354,0.4766 0.16857,0.9409 0.39118,1.3638 15.18819,18.0008 30.46242,35.9285 45.72659,53.8648 l 0.77027,19.4089 m -51.30817,-123.1785 -14.72644,35.4307 -4.31152,-52.4487 z m -26.51276,-22.5046 4.9405,60.0996 -47.84852,-67.8064 z m -50.90844,-6.9036 48.311,68.4618 -70.94513,-41.1166 z m -23.32044,35.0382 71.46039,41.4152 -64.30981,2.3592 z m 77.6493,64.5159 h -0.005 l -51.09388,-14.4443 55.552,-2.0379 49.09681,59.9022 -52.29077,-42.7608 c -0.37032,-0.3028 -0.79908,-0.5261 -1.25952,-0.6558 z m 46.72875,67.7047 -31.42712,-46.524 59.85993,48.9505 1.5166,16.3198 z m 604.492,-206.2649 52.69904,27.9553 47.3857,28.4199 33.4686,20.897 -246.74716,49.7755 z m -71.311,-10.8969 63.57093,9.0617 -106.35459,119.3713 z M 842.31757,1625.425 670.31586,1599.327 887.7713,1488.9765 Z m -99.42365,-125.8937 134.18805,-12.9802 -205.63544,104.3523 z m -63.58691,-3.7019 54.87512,3.4782 -69.60313,89.0135 z m -193.66834,-147.6409 -9.0791,-21.4053 34.33545,24.1426 h 0.0189 c 0.58563,0.4093 1.28227,0.6301 1.99676,0.6328 0.0921,0 0.1839,-0.026 0.27619,-0.034 l 0.0612,0.016 46.65429,-4.5498 54.60352,32.0937 -57.76221,59.5704 -37.32617,-27.625 -22.7417,-30.1387 z m 6.20868,147.0183 -93.17248,-81.8917 91.43982,-26.1416 z m 150.65808,-122.8588 -21.12897,2.3205 c -19.77135,-11.1952 -39.32107,-22.7713 -58.9082,-34.2838 l -2.11328,-0.4658 -30.37219,2.9618 31.41278,-16.8389 z m 2.69928,6.7465 -85.96393,102.3357 1.33246,-36.6636 61.18128,-63.0967 z m -132.04895,-35.1365 -25.4928,-17.9254 60.11835,-0.6358 z m 0.97852,71.6973 0.71191,0.705 38.71375,28.6522 -1.58289,43.5547 -53.0708,10.2581 -1.6936,-105.5956 z m -9.0213,89.1001 52.06732,-9.7699 115.07275,0.627 -15.90289,99.8701 m -4.44318,-106.9811 -78.36053,-0.4269 33.12475,-13.0559 z m -47.9461,-19.9378 -37.03,14.5951 71.05224,-84.5842 z m 72.98687,-85.4846 -55.21539,64.9381 34.46442,-70.8986 21.31421,-12.9547 z m -2.94,-24.9782 -20.0426,12.1818 -50.73786,-48.0798 z m -102.63226,-56.637 0.0585,0.072 c 0.15564,0.2627 0.34528,0.5037 0.564,0.7167 l 57.49469,54.4819 -64.49311,-37.298 -14.90149,-54.7701 z m -34.461,-58.588 17.346,63.7546 -54.40607,-67.1639 z m -45.14258,-2.2658 57.14636,70.5467 -82.71362,-42.1172 z m -25.43591,36.3522 81.37286,41.4346 -68.37024,0.723 z m 12.71234,73.5895 10.0036,29.645 -90.02894,25.7383 60.2168,-102.031 z m -149.15253,-159.3647 54.88306,22.0952 47.83844,39.2141 23.12244,43.5641 -60.225,101.3286 z m -7.13955,0.1436 66.8621,211.9336 -98.68964,-132.4228 z m -109.45462,112.5638 72.43719,-28.3027 96.80457,129.8935 z m 103.63779,-116.8697 -30.0907,75.1714 -34.4002,-80.697 z m -71.3247,-3.7064 32.50317,76.2467 -61.72961,-50.7645 z m -31.63385,32.5652 66.1369,54.389 -72.03656,28.1461 z m 160.66359,191.8156 -133.59291,-4.2421 -26.04788,-40.4613 c -4.32228,-31.0598 -4.2124,-32.9384 -6.9754,-53.7804 z m -125.48256,3.0203 130.63586,4.123 -72.19806,44.4894 z m 133.23541,99.2662 -68.64307,-46.2247 73.91583,-45.5479 z m 12.23431,-90.905 92.65387,81.4359 -98.01233,11.8288 z m 44.4704,160.6898 -0.17773,-0.252 -46.83875,-60.4621 99.92005,-12.059 0.54119,66.3147 -44.04821,21.0846 z m -42.202,88.9866 52.57232,-67.0652 34.48645,-16.5077 -86.0534,108.9036 z m 70.47998,-19.8909 -49.66474,62.3252 -17.671,11.2772 -1.602,-17.2392 m 18.41044,-23.8332 73.31982,-92.7886 -7.015,39.3387 -23.6532,19.0722 h -0.003 m 30.71907,-18.8037 7.69568,-43.1505 52.06457,83.199 z m 162.6906,-26.6335 -90.41284,73.49 -62.23168,-99.4458 -1.24194,-66.3606 m 69.07546,170.2733 89.97155,-73.1313 90.24189,149.955 z m 190.43539,80.2331 -86.12969,-143.1218 189.25641,154.8901 z m -87.44928,-153.2482 170.65259,25.8933 26.07777,135.1136 z m 204.70813,165.4047 -25.93924,-134.3967 136.78223,101.9857 z m 186.54456,4.5595 2.4189,0.3818 29.9014,-6.0891 7.6817,6.3233 -50.3145,14.9028 -10.686,-27.3731 z m 44.2397,-4.5096 -7.5063,-6.6318 -0.1915,-13.7789 -0.2742,-28.4036 11.5828,-43.61 z m -74.6236,-12.1357 9.3683,23.9975 -31.272,-28.0768 z m -33.9358,-5.4746 39.291,35.2761 -70.126,-16.8418 z m -36.46844,24.2806 76.42674,18.3551 -76.14171,28.4224 z m 47.93144,82.2453 -43.54039,-29.528 76.23649,-28.4581 z m 96.6023,-55.9166 -66.602,24.2772 -1.4043,0.9473 -8.7253,9.7033 22.9355,-40.6761 53.8511,-15.9504 z m -13.9082,-84.8726 -96.9392,17.0934 -138.89935,-103.5642 254.17575,17.43 z m -221.28039,-92.4897 236.23069,-47.6538 4.1101,64.135 z m 999.78729,-350.5222 -23.2067,-5.5555 -9.7689,-93.293 z m -57.097,7.1273 -1.3849,-126.279 15.6882,-6.2352 12.6177,120.4978 -3.5808,9.2646 -26.5966,54.9475 3.1575,-44.4852 m -148.6296,70.2903 61.6384,-28.286 9.3235,-4.4808 70.4056,-34.0801 -3.8557,54.324 z m 46.5681,-29.0715 -64.7002,29.691 -20.2704,-32.8638 z m -92.3122,-1.7436 21.0553,34.1364 -124.9691,47.3912 z m -118.6714,32.2558 103.487,-29.24 -105.2,82.5367 z m -38.3981,67.2775 31.0212,-55.6531 -1.5537,48.342 -46.3474,118.8413 z m 24.9287,23.5922 -21.3035,143.5793 -24.6043,-25.8658 z m -103.5765,163.8128 53.2277,-40.6116 25.3148,26.6129 -118.3623,45.8268 z m -122.4147,14.7002 1.0458,0.035 107.477,-12.5944 -47.033,37.5936 -197.7939,-13.0834 48.8916,-36.4901 z m -104.0415,-101.6501 -22.6776,-52.7078 34.2298,46.0668 1.2423,77.8791 -47.8993,35.7495 z m -40.0158,-75.0353 25.4846,56.7388 -24.0369,-32.1036 -20.792,-55.9873 z m -31.683,-47.5062 21.1734,60.5228 -48.2075,-48.3206 z m -33.0205,16.1203 46.7688,46.503 -63.2262,-28.928 z m -17.4709,24.8089 68.4853,31.3343 -59.9013,9.1168 z m 46.352,61.4824 -29.3552,-15.2316 53.3471,-8.1193 z m 22.9616,-11.0042 -1.3949,-0.2183 12.3146,-11.9856 32.411,41.942 -16.7836,3.7112 z m 44.6004,36.0431 -31.3313,93.4514 -3.3755,-52.6703 c 5.6925,-12.2392 11.6812,-24.3328 17.6655,-36.4304 z m -35.5502,257.1588 4.9017,-134.0122 32.6912,53.0507 m 5.9395,-3.7035 -35.1219,-56.9954 200.0209,13.2306 23.0935,38.2153 z m 195.6886,-6.3478 -23.586,-39.0304 136.2025,-52.7342 4.0837,52.9267 z m 123.1771,-45.8783 -3.6599,-47.4336 40.101,-0.8972 z m 40.1785,-55.416 -42.3655,0.948 45.4402,-111.9233 z m -39.8606,-23.8312 21.1826,-142.7651 21.8889,36.6763 z m 74.8754,-155.2658 c -0.4287,0.2691 -0.7934,0.6287 -1.0686,1.0535 l -0.02,0.015 -26.6937,41.1857 -22.7864,-38.1801 112.8177,-42.7832 z m 17.3259,-4.0306 76.9415,-46.3447 31.9338,29.0952 z m 85.6519,-47.8781 130.1424,-10.5528 -97.2041,40.5632 z m 141.239,17.3511 -84.2866,10.2239 95.9402,-40.0358 40.7461,-8.0276 z m 64.4954,-47.3564 -47.6608,9.3899 34.4197,-71.1095 25.6558,6.1418 z"
     id="path84"
     inkscape:connector-curvature="0"
     style="fill:#55a53f;fill-opacity:1"
     sodipodi:nodetypes="ccccccccccccccccccccccccccccccccccccccccccccccccccccccccccccccccccccccccccccccccccccccccccccccccccccccccccccccccccccccccccccccccccccccccccccccccccccccccccccccccccccccccccccccccccccccccccccccccccccccccccccccccccccccccccccccccccccccccccccccccccccccccccccccccccccccccccccccccccccccccccccccccccccccccccccccccccccccccccccccccccccccccccccccccccccccccccccccccccccccccccccccccccccccccccccccccccccccccccccccccccccccccccccccccccccccccccccccccccccccccccccccccccccccccccccccccccccccccccccccccccccccccccccccccccccccccccccccccccccccccccccccccccccccccccccccccccccccccccccccccccccccccccccccccccccccccccccccccccccccccccccccccccccccccccccccccccccccccccccccccccccccccccccccccccccccccccccccccccccccc" />
</svg>
